<svg width="292" height="122" viewBox="0 0 292 122" fill="none" xmlns="http://www.w3.org/2000/svg">
<rect x="1.08887" y="1.5" width="289.286" height="119" rx="30" fill="black" fill-opacity="0.39"/>
<rect x="1.08887" y="1.5" width="289.286" height="119" rx="30" stroke="url(#paint0_linear_438_1054)" stroke-width="2"/>
<path d="M86.2451 52.5742H83.3004L82.5642 53.4494C82.4169 53.5953 82.4906 53.6682 82.6378 53.7411L83.5948 54.1787L86.3187 52.9389C86.5396 52.866 86.466 52.5742 86.2451 52.5742ZM75.2759 66.8691H71.6686C70.7116 67.4525 70.4171 67.5984 69.1656 68.1089C69.092 68.1089 69.0184 68.2548 69.092 68.3277L72.3312 77.2985H74.1717L71.2269 69.057C73.141 69.057 77.779 68.5465 80.282 64.5352C79.4722 65.7021 77.6317 66.8691 75.2759 66.8691ZM73.2882 70.2969L75.7913 77.2985H77.6317L74.9815 69.9322C74.5398 70.0781 73.9508 70.151 73.2882 70.2969ZM75.7913 61.545C76.0121 61.2532 76.1594 60.9615 76.3802 60.5968C76.3066 60.5239 76.233 60.5968 76.1594 60.6698C72.4048 64.6081 68.7975 65.1187 66 65.1187H61.7302C61.5829 65.1187 61.5093 64.9728 61.5829 64.8269C64.8957 60.3051 68.5031 56.7314 71.2269 54.4705L64.0859 60.378C63.497 60.8156 62.8344 61.1074 61.951 61.1074H52.9696C52.7487 61.1074 52.8223 61.3262 52.8223 61.472C53.4113 63.3683 55.1781 65.1187 58.1229 65.1187L55.9879 67.2337C55.9143 67.3067 55.9143 67.5255 56.1352 67.5255H64.1596C69.9018 67.5255 73.5091 65.0457 75.7913 61.545Z" fill="white"/>
<path d="M228.225 88.7549H239.375V54.6046H228.225V67.1471H217.702V54.6046H206.553V88.7549H217.702V75.8399H228.225V88.7549ZM96.3108 50.8791C95.3086 49.8856 95.3086 48.3954 96.3108 47.402C97.313 46.4085 98.9416 46.4085 99.8185 47.402C100.695 48.3954 100.821 49.8856 99.8185 50.8791C98.8163 51.8725 97.1878 51.8725 96.3108 50.8791ZM99.4427 67.0229C103.702 60.1928 105.205 49.3889 105.205 49.3889L103.577 48.6438C103.326 48.5196 103.326 48.3954 103.452 48.1471L104.704 46.6569C103.953 45.1667 101.197 42.683 97.1878 42.683C94.8075 42.683 92.6779 43.3039 90.7988 44.5458C90.7988 44.5458 88.0427 46.4085 84.1592 49.7614C79.524 53.7353 73.3856 59.6961 67.7482 67.3954C67.6229 67.6438 67.7482 67.8922 67.9988 67.8922H75.2647C80.0251 67.8922 86.1636 67.0229 92.5526 60.317C92.6779 60.1928 92.8032 60.1928 92.9284 60.1928C93.0537 60.317 93.0537 60.4412 93.0537 60.5654C92.0515 63.049 89.546 67.8922 84.9108 70.8725H91.0493C95.1834 70.8725 98.19 69.0098 99.4427 67.0229ZM93.179 75.219L97.9394 88.6307H111.469C108.713 80.3105 105.706 72.6111 102.825 65.5327C100.57 70.3758 98.4405 72.7353 93.179 75.219ZM52.0889 88.7549H65.7438L70.379 74.4739H57.0999C55.4713 78.6961 53.8427 83.415 52.0889 88.7549ZM70.5043 58.0817L77.3944 52.4935C78.8977 48.5196 80.401 44.5458 81.9043 41.1928C82.6559 42.9314 83.4076 44.7941 84.1592 46.6569C87.9174 43.5523 90.2977 41.6895 93.4295 40.8203C91.5504 36.7222 90.1724 33.7418 89.546 32.5H74.2625C73.0097 35.232 68.124 45.2909 62.3614 58.8268H67.8735C69.001 58.8268 69.8779 58.7026 70.5043 58.0817ZM154.939 84.9052L155.691 88.6307H164.711V54.6046H153.561V78.3235C152.559 79.4412 150.68 80.683 148.926 80.683C145.794 80.683 144.166 78.9444 144.166 75.7157V54.6046H133.016V78.3235C132.014 79.4412 129.884 80.683 128.005 80.683C125.124 80.683 123.495 78.9444 123.495 75.7157V54.6046H112.346V77.2059C112.346 85.402 115.979 89.5 123.495 89.5C128.882 89.5 132.139 87.5131 134.645 84.9052C136.399 88.0098 139.531 89.5 144.166 89.5C149.553 89.3758 152.559 87.5131 154.939 84.9052ZM190.392 78.1993C189.39 79.317 187.761 80.5588 185.005 80.5588C181.999 80.5588 180.37 77.8268 180.37 72.4869C180.37 65.9052 182.124 62.6765 185.757 62.6765C187.887 62.6765 188.889 62.8007 190.392 63.1732V78.1993ZM181.122 89.3758H181.498C186.509 89.3758 189.891 87.6373 191.77 84.9052L192.397 88.6307H201.542V55.9706C197.909 54.8529 193.649 53.8595 185.882 53.8595C174.733 53.8595 168.72 60.5654 168.72 72.9837C168.72 84.4085 172.979 89.3758 181.122 89.3758Z" fill="white"/>
<defs>
<linearGradient id="paint0_linear_438_1054" x1="6.01835" y1="18.4071" x2="284.744" y2="116.476" gradientUnits="userSpaceOnUse">
<stop stop-color="#E1B562"/>
<stop offset="0.484375" stop-color="#F5CD82"/>
<stop offset="1" stop-color="#E1B562"/>
</linearGradient>
</defs>
</svg>
