<svg width="302" height="122" viewBox="0 0 302 122" fill="none" xmlns="http://www.w3.org/2000/svg">
<rect x="1.04492" y="1.5" width="299.221" height="119" rx="30" fill="black" fill-opacity="0.39"/>
<rect x="1.04492" y="1.5" width="299.221" height="119" rx="30" stroke="url(#paint0_linear_438_1075)" stroke-width="2"/>
<path d="M167.527 38.4827V83.5195C167.527 85.5361 165.78 87.2838 163.629 87.2838C161.478 87.2838 159.864 85.6705 159.864 83.5195V38.4827C159.864 36.3317 161.612 34.584 163.629 34.584C165.645 34.584 167.527 36.3317 167.527 38.4827Z" fill="white"/>
<path d="M244.426 24.5H56.8847C54.1959 24.5 52.0449 26.651 52.0449 29.3398V92.6602C52.0449 95.349 54.1959 97.5 56.8847 97.5H244.426C247.115 97.5 249.266 95.349 249.266 92.6602V29.3398C249.266 26.651 247.115 24.5 244.426 24.5ZM115.769 45.6068L112.542 61.2017C112.273 62.2772 111.332 63.0838 110.122 63.0838H83.7724L87.4022 81.6363H101.787C102.728 80.023 104.341 78.8131 106.358 78.8131C109.181 78.8131 111.467 81.0985 111.467 83.9217C111.467 86.7449 109.316 89.1648 106.358 89.1648C104.341 89.1648 102.594 88.0893 101.787 86.3416H75.7061C74.8994 87.9549 73.1517 89.1648 71.1352 89.1648C68.312 89.1648 66.0265 86.8794 66.0265 83.9217C66.0265 81.0985 68.312 78.8131 71.1352 78.8131C73.1517 78.8131 74.8994 79.8886 75.7061 81.6363H82.428C81.0836 74.7799 74.6306 41.4392 74.0928 38.2127C71.2696 38.2127 62.5311 38.2127 62.5311 38.2127C61.1867 38.2127 60.1112 37.1372 60.1112 35.7928C60.1112 34.4484 61.1867 33.3729 62.5311 33.3729H75.9749C77.1849 33.3729 78.126 34.1796 78.3948 35.3895L79.8737 42.7836H113.349C114.021 42.7836 114.693 43.1869 115.231 43.7247C115.634 44.128 115.903 44.9346 115.769 45.6068ZM146.824 46.279C148.437 46.279 149.513 47.489 149.513 49.2366C149.513 50.8499 148.303 51.9254 146.824 51.9254H140.236C140.236 53.1354 140.236 90.2403 140.236 90.2403C140.236 91.7192 139.027 93.0635 137.413 93.0635C135.8 93.0635 134.59 91.8536 134.59 90.2403V32.0285C134.59 32.0285 134.59 32.0285 134.59 31.8941C134.59 31.8941 134.59 31.7597 134.59 31.6252C134.724 30.6842 135.128 30.012 135.934 29.6087C136.338 29.3398 136.876 29.2053 137.413 29.2053H147.631C149.244 29.2053 150.319 30.5497 150.319 32.163C150.319 33.7762 149.109 34.9862 147.631 34.9862H140.236V46.4134H146.824V46.279ZM173.039 83.5184C173.039 89.2993 168.2 92.9291 163.629 92.9291C158.386 92.9291 154.218 88.7615 154.218 83.5184V38.4816C154.218 33.7762 157.713 28.9365 163.629 28.9365C169.544 28.9365 173.039 33.7762 173.039 38.4816V83.5184ZM197.238 32.5663C197.238 32.5663 183.794 85.535 183.526 87.0138H193.205C195.222 87.0138 196.163 88.4926 196.163 89.837C196.163 91.1814 195.356 92.6602 193.205 92.6602H179.224H179.089C177.745 92.2569 176.938 91.1814 176.938 89.9715C176.938 89.7026 176.938 89.4337 177.073 89.1648C177.879 86.3416 187.962 46.8168 190.92 34.8518C189.575 34.8518 180.837 34.8518 180.837 34.8518C179.761 34.8518 178.283 33.9107 178.283 32.163C178.283 30.1464 180.03 29.2053 180.837 29.2053H195.087C195.76 29.3398 196.432 29.7431 196.835 30.4153C197.104 30.8186 197.238 31.3564 197.238 31.8941C197.373 32.0285 197.238 32.2974 197.238 32.5663ZM219.69 32.5663C219.69 32.5663 206.246 85.535 205.977 87.0138C207.321 87.0138 215.656 87.0138 215.656 87.0138C217.673 87.0138 218.614 88.4926 218.614 89.9715C218.614 91.3158 217.807 92.7947 215.656 92.7947H201.675H201.54C200.196 92.3913 199.524 91.3158 199.524 90.1059C199.524 89.837 199.524 89.5681 199.658 89.4337C200.465 86.6105 210.548 47.0856 213.505 35.1206C212.161 35.1206 203.422 35.1206 203.422 35.1206C202.347 35.1206 200.868 34.1796 200.868 32.4319C200.868 30.4153 202.616 29.4742 203.422 29.4742H217.539C218.211 29.6087 218.883 30.012 219.286 30.6842C219.555 31.0875 219.69 31.6252 219.69 32.163C219.824 32.163 219.824 32.2974 219.69 32.5663ZM244.157 33.2385C244.157 33.2385 243.754 33.9107 243.082 34.8518L236.36 45.4724V90.6436C236.36 92.1225 235.15 93.4669 233.537 93.4669C231.923 93.4669 230.713 92.2569 230.713 90.6436V45.4724L223.992 34.8518C223.319 33.9107 222.916 33.2385 222.916 33.2385C222.647 32.7007 222.513 32.2974 222.513 31.7597C222.513 30.8186 223.05 30.012 223.857 29.3398C224.529 28.9365 225.336 28.802 226.008 28.9365C226.68 29.0709 227.353 29.4742 227.756 30.1464C227.756 30.1464 231.789 37.0028 233.537 39.9604C235.284 36.8683 239.318 30.1464 239.318 30.1464C239.721 29.4742 240.393 29.0709 241.065 28.9365C241.737 28.802 242.544 28.9365 243.216 29.3398C244.157 29.8775 244.561 30.8186 244.561 31.7597C244.695 32.2974 244.561 32.7007 244.157 33.2385ZM82.8313 58.244C87.94 58.244 105.148 58.244 108.106 58.244C108.643 55.9586 109.719 50.7155 110.391 47.489H80.8147L82.8313 58.244Z" fill="white"/>
<defs>
<linearGradient id="paint0_linear_438_1075" x1="6.17665" y1="18.4071" x2="292.223" y2="122.485" gradientUnits="userSpaceOnUse">
<stop stop-color="#E1B562"/>
<stop offset="0.484375" stop-color="#F5CD82"/>
<stop offset="1" stop-color="#E1B562"/>
</linearGradient>
</defs>
</svg>
