<svg width="295" height="122" viewBox="0 0 295 122" fill="none" xmlns="http://www.w3.org/2000/svg">
<rect x="1.375" y="1.5" width="292" height="119" rx="30" fill="black" fill-opacity="0.39"/>
<rect x="1.375" y="1.5" width="292" height="119" rx="30" stroke="url(#paint0_linear_438_1058)" stroke-width="2"/>
<path d="M231.502 70.0484C231.453 70.4419 231.305 71.477 229.964 71.6114H218.188C216.848 71.477 216.603 70.4419 216.553 70.0484V51.7667C216.602 51.3722 216.788 50.5339 218.129 50.3994H229.969C231.311 50.5339 231.453 51.3722 231.502 51.7667V70.0484ZM235.58 43.5113H212.475C209.004 43.793 206.071 45.5636 205.68 49.5247V72.1587C206.071 76.1198 209.004 78.2183 212.475 78.5H235.58C239.051 78.2183 241.983 76.1198 242.375 72.1587V49.5247C241.983 45.5636 239.051 43.793 235.58 43.5113ZM142.074 50.3994H131.745V43.5113H163.276V50.3994H152.947V78.5H142.074V50.3994ZM128.484 50.3994V43.5113H100.214V78.5L128.859 78.4925L128.87 71.6119H111.114L111.116 64.1181H128.484V57.2469H111.116V50.3994L128.484 50.3994ZM191.545 55.8226C191.545 56.5798 191.358 57.2441 190.007 57.2441H177.411V50.3763H190.023C191.557 50.3763 191.545 51.3859 191.545 52.0162V55.8226ZM194.557 64.8984C197.949 64.6252 201.331 62.3036 201.331 58.4906V49.8526C200.937 45.9099 197.996 43.7807 194.508 43.5H166.538L166.539 78.5H177.411V64.8984H181.738L188.805 78.5H201.309L192.893 64.8984H194.557ZM77.7082 78.5L84.9927 56.5227V78.5H95.8654V43.5113H81.1876L74.1202 61.0061L67.0528 43.5113H52.375V78.5H63.2477V56.5227L70.5862 78.5H77.7082Z" fill="white"/>
<defs>
<linearGradient id="paint0_linear_438_1058" x1="6.35973" y1="18.4071" x2="287.103" y2="118.106" gradientUnits="userSpaceOnUse">
<stop stop-color="#E1B562"/>
<stop offset="0.5" stop-color="#F5CD82"/>
<stop offset="1" stop-color="#E1B562"/>
</linearGradient>
</defs>
</svg>
