<svg width="287" height="122" viewBox="0 0 287 122" fill="none" xmlns="http://www.w3.org/2000/svg">
<rect x="1.375" y="1" width="283.67" height="120" rx="30" fill="black" fill-opacity="0.39"/>
<rect x="1.375" y="1" width="283.67" height="120" rx="30" stroke="url(#paint0_linear_438_1060)" stroke-width="2"/>
<path fill-rule="evenodd" clip-rule="evenodd" d="M191.981 63.9132C191.981 65.2393 191.871 68.1672 190.882 70.1565C189.629 72.7 187.33 73.362 185.411 73.362C183.496 73.362 181.196 72.7 179.944 70.1565C178.955 68.1672 178.843 65.2393 178.843 63.9132V41.6465H168.664V65.6277C168.664 68.5527 169.05 72.7 172.114 76.1262C176.054 80.5443 182.018 80.989 185.411 80.989C188.807 80.989 194.773 80.5443 198.712 76.1262C201.781 72.7 202.16 68.5527 202.16 65.6277V41.6465H191.981V63.9132Z" fill="white"/>
<path fill-rule="evenodd" clip-rule="evenodd" d="M147.636 72.0458H147.522L139.14 41.6582H128.423L141.087 80.3336H153.529L166.414 41.6582H156.076L147.636 72.0458Z" fill="white"/>
<mask id="mask0_438_1060" style="mask-type:alpha" maskUnits="userSpaceOnUse" x="91" y="41" width="39" height="40">
<path fill-rule="evenodd" clip-rule="evenodd" d="M129.602 41H91.3018V80.9998H129.602V41Z" fill="white"/>
</mask>
<g mask="url(#mask0_438_1060)">
<path fill-rule="evenodd" clip-rule="evenodd" d="M116.75 70.2267C115.544 71.9378 113.521 73.3735 110.458 73.3735C107.39 73.3735 105.365 71.9378 104.162 70.2267C102.083 67.4078 101.809 63.485 101.809 60.9987C101.809 58.511 102.083 54.5893 104.162 51.7739C105.365 50.0622 107.39 48.6243 110.458 48.6243C113.521 48.6243 115.544 50.0622 116.75 51.7739C118.826 54.5893 119.103 58.511 119.103 60.9987C119.103 63.485 118.826 67.4078 116.75 70.2267ZM110.305 41C107.031 41.0147 100.865 41.5147 96.3388 46.1378C91.8553 50.7236 91.3018 57.1882 91.3018 60.9987C91.3018 64.8118 91.8553 71.2753 96.3388 75.8583C100.937 80.5547 107.227 81 110.458 81C113.687 81 119.981 80.5547 124.578 75.8583C129.064 71.2753 129.602 64.8118 129.602 60.9987C129.602 57.1882 129.064 50.7236 124.578 46.1378C120.053 41.5147 113.883 41.0147 110.612 41H110.305Z" fill="white"/>
</g>
<mask id="mask1_438_1060" style="mask-type:alpha" maskUnits="userSpaceOnUse" x="205" y="41" width="30" height="40">
<path fill-rule="evenodd" clip-rule="evenodd" d="M234.045 81H205.487V41H234.045V81Z" fill="white"/>
</mask>
<g mask="url(#mask1_438_1060)">
<path fill-rule="evenodd" clip-rule="evenodd" d="M230.6 60.1165C228.577 58.458 224.91 57.2412 222.995 56.7457L222.395 56.5764C219.22 55.6955 217.359 54.9782 216.538 53.9274C216.208 53.5431 215.986 52.8495 215.986 52.1283C215.986 51.1796 216.442 50.0363 217.962 49.3404C219.539 48.6181 221.325 48.5673 222.634 48.6237C224.87 48.7259 228.974 49.8088 230.962 52.0238C230.962 52.0238 232.355 49.1559 231.697 46.7377C230.942 43.9583 228.857 42.43 226.75 41.7365C225.105 41.1958 222.702 41.0085 221.34 41H221.079C217.586 41.0169 214.519 41.5745 211.616 43.0429C207.286 45.2529 205.487 48.7388 205.487 52.9872C205.487 54.4804 205.809 56.3044 206.415 57.6858C207.837 60.783 211.07 62.7125 214.073 63.6515L215.662 64.1498C218.452 65.0308 220.589 65.5292 222.064 66.69C222.995 67.4073 223.544 68.2345 223.544 69.5637C223.544 70.891 222.884 71.69 222.204 72.2155C221.06 73.1032 218.831 73.374 217.247 73.374C214.625 73.374 210.238 72.3492 206.742 68.4913C206.742 68.4913 205.632 71.782 206.219 74.3503C206.807 76.9175 209.032 78.5542 210.988 79.4718C213.119 80.482 216.023 81 218.161 81C221.935 81 226.28 80.3922 229.672 77.8498C231.855 76.1947 234.045 73.2657 234.045 68.2345C234.045 65.4767 233.392 62.3823 230.6 60.1165Z" fill="white"/>
</g>
<path fill-rule="evenodd" clip-rule="evenodd" d="M78.4405 67.8155H78.3293C78.3293 67.8155 72.2545 55.4705 69.536 49.9558C66.8256 44.4377 61.2738 41.502 56.2914 41.502H52.375V80.279H61.7552L61.429 53.7978H61.5402C61.5402 53.7978 68.7257 68.0898 70.7482 72.0283C73.6912 77.7541 77.7312 80.279 83.1605 80.279H87.6028V41.502H78.2752L78.4405 67.8155Z" fill="white"/>
<defs>
<linearGradient id="paint0_linear_438_1060" x1="6.19017" y1="18.0551" x2="281.174" y2="112.165" gradientUnits="userSpaceOnUse">
<stop stop-color="#E1B562"/>
<stop offset="0.484375" stop-color="#F5CD82"/>
<stop offset="1" stop-color="#E1B562"/>
</linearGradient>
</defs>
</svg>
