<svg width="167" height="167" viewBox="0 0 167 167" fill="none" xmlns="http://www.w3.org/2000/svg">
<mask id="mask0_1359_1457" style="mask-type:luminance" maskUnits="userSpaceOnUse" x="0" y="0" width="167" height="167">
<path d="M166.988 0H0.821777V166.167H166.988V0Z" fill="white"/>
</mask>
<g mask="url(#mask0_1359_1457)">
<path fill-rule="evenodd" clip-rule="evenodd" d="M72.5221 34.7917C63.8135 36.8735 56.0195 41.1625 49.7855 47.1368L49.7848 47.1374C43.8024 52.8597 39.2516 60.0114 36.6512 68.0728L36.6482 68.0821L36.6481 68.082C35.0934 72.7463 34.3124 77.8108 34.3124 83.0165C34.3124 93.1524 37.4306 102.641 42.7623 110.573L42.7664 110.579C48.3516 119.022 56.67 125.652 66.2895 129.292L66.2992 129.296C71.624 131.374 77.4686 132.543 83.5734 132.543H83.9713C90.0911 132.543 95.9343 131.501 101.246 129.428L101.255 129.425C110.882 125.782 119.2 119.28 124.782 110.971L124.789 110.962L124.789 110.962C130.245 103.037 133.365 93.4213 133.365 83.1491C133.365 68.8495 127.388 56.1121 117.764 47.0087L117.759 47.0042C111.519 41.0235 103.856 36.7395 95.1577 34.7922L95.1456 34.7895L95.1336 34.7865C91.5133 33.8814 87.7506 33.4902 83.8387 33.4902C79.9529 33.4902 76.1833 34.0078 72.5221 34.7917ZM72.0916 32.8386C75.8533 32.0325 79.7716 31.4902 83.8387 31.4902C87.8794 31.4902 91.8044 31.8939 95.6067 32.8432C104.673 34.8754 112.654 39.3421 119.141 45.5581C129.143 55.0206 135.365 68.2747 135.365 83.1491C135.365 93.8281 132.121 103.837 126.439 112.091C120.618 120.754 111.964 127.51 101.968 131.293C96.406 133.463 90.3155 134.543 83.9713 134.543H83.5734C77.2143 134.543 71.1252 133.325 65.5768 131.161C55.5725 127.374 46.9188 120.48 41.1002 111.685C35.5588 103.44 32.3124 93.5672 32.3124 83.0165C32.3124 77.6148 33.1223 72.3369 34.7492 67.4542C37.4536 59.0734 42.1851 51.6392 48.402 45.6925M72.0916 32.8386L72.0802 32.841L72.0916 32.8386ZM72.0802 32.841L72.0689 32.8437L72.0802 32.841ZM72.0689 32.8437C63.012 35.0066 54.8965 39.4688 48.4023 45.6922L72.0689 32.8437Z" fill="black"/>
</g>
<mask id="mask1_1359_1457" style="mask-type:luminance" maskUnits="userSpaceOnUse" x="0" y="0" width="167" height="167">
<path d="M166.988 0H0.821777V166.167H166.988V0Z" fill="white"/>
</mask>
<g mask="url(#mask1_1359_1457)">
<path fill-rule="evenodd" clip-rule="evenodd" d="M83.9713 33.7559C56.6919 33.7559 34.5776 55.8702 34.5776 83.1495C34.5776 110.429 56.6919 132.543 83.9713 132.543C111.251 132.543 133.365 110.429 133.365 83.1495C133.365 55.8702 111.251 33.7559 83.9713 33.7559ZM32.5776 83.1495C32.5776 54.7656 55.5874 31.7559 83.9713 31.7559C112.355 31.7559 135.365 54.7656 135.365 83.1495C135.365 111.533 112.355 134.543 83.9713 134.543C55.5874 134.543 32.5776 111.533 32.5776 83.1495Z" fill="black"/>
</g>
<mask id="mask2_1359_1457" style="mask-type:luminance" maskUnits="userSpaceOnUse" x="0" y="0" width="167" height="167">
<path d="M166.988 0H0.821777V166.167H166.988V0Z" fill="white"/>
</mask>
<g mask="url(#mask2_1359_1457)">
<path fill-rule="evenodd" clip-rule="evenodd" d="M112.881 96.6152C101.918 96.6152 91.617 99.486 82.7543 104.699L82.7499 104.702C77.5377 107.732 72.8827 111.556 68.7864 115.968C72.1517 117.455 75.638 118.428 79.4353 118.889C80.8935 119.022 82.3045 119.149 83.8387 119.149C86.4221 119.149 88.8727 118.891 91.3243 118.375L91.3313 118.373C99.5956 116.695 106.821 112.306 111.981 106.115L111.988 106.105L111.996 106.096C114.395 103.354 116.296 100.194 117.784 96.7882C116.217 96.6923 114.586 96.6152 112.881 96.6152ZM81.7425 102.974C90.915 97.5791 101.566 94.6152 112.881 94.6152C115.172 94.6152 117.324 94.75 119.313 94.8827L120.686 94.9742L120.175 96.2519C118.552 100.311 116.378 104.123 113.509 107.404C108.06 113.939 100.438 118.564 91.7328 120.333C89.1463 120.877 86.5587 121.149 83.8387 121.149C82.2018 121.149 80.7051 121.013 79.2564 120.881L79.2243 120.878L79.2094 120.877C74.7217 120.333 70.6372 119.107 66.6945 117.204L65.5002 116.627L66.3829 115.638C70.8219 110.661 75.9411 106.347 81.7425 102.974Z" fill="black"/>
</g>
<mask id="mask3_1359_1457" style="mask-type:luminance" maskUnits="userSpaceOnUse" x="0" y="0" width="167" height="167">
<path d="M166.988 0H0.821777V166.167H166.988V0Z" fill="white"/>
</mask>
<g mask="url(#mask3_1359_1457)">
<path fill-rule="evenodd" clip-rule="evenodd" d="M115.044 105.723L113.65 107.396C108.2 113.935 100.575 118.563 91.8657 120.333C89.2791 120.878 86.6914 121.15 83.9714 121.15C82.3346 121.15 80.8378 121.014 79.3891 120.882L77.1764 120.681L78.7728 119.16C81.628 116.441 84.8789 114.141 88.3784 112.122L88.3882 112.117L88.3982 112.111C95.5699 108.187 103.952 105.891 112.866 105.756L115.044 105.723ZM89.3681 113.86C86.6659 115.42 84.1424 117.137 81.8568 119.077C82.5461 119.121 83.2449 119.15 83.9714 119.15C86.5548 119.15 89.0054 118.892 91.4571 118.375L91.464 118.374C98.9379 116.856 105.562 113.121 110.577 107.842C102.86 108.299 95.6279 110.437 89.3681 113.86Z" fill="black"/>
</g>
<mask id="mask4_1359_1457" style="mask-type:luminance" maskUnits="userSpaceOnUse" x="0" y="0" width="167" height="167">
<path d="M166.988 0H0.821777V166.167H166.988V0Z" fill="white"/>
</mask>
<g mask="url(#mask4_1359_1457)">
<path fill-rule="evenodd" clip-rule="evenodd" d="M45.1858 85.8291L46.3373 85.862C55.8046 86.1325 64.5996 88.9733 72.0424 93.7096L70.9687 95.3969C64.1316 91.0461 56.104 88.3596 47.4521 87.9085C48.5469 95.4279 51.9344 102.116 56.853 107.53C59.9569 110.761 63.5763 113.475 67.5822 115.543C71.1785 117.34 75.1705 118.502 79.4353 119.021C80.8916 119.153 82.4357 119.281 83.8388 119.281C86.4221 119.281 88.8728 119.022 91.3244 118.506L91.7364 120.463C89.1487 121.008 86.56 121.281 83.8388 121.281C82.3291 121.281 80.6961 121.144 79.2393 121.011L79.2244 121.01L79.2095 121.008C74.7296 120.465 70.5066 119.241 66.6821 117.329L66.6706 117.323L66.6706 117.323C62.4607 115.15 58.6589 112.299 55.4008 108.905L55.3914 108.895L55.3823 108.885C49.9481 102.908 46.2688 95.4215 45.315 86.9738L45.1858 85.8291Z" fill="black"/>
</g>
<mask id="mask5_1359_1457" style="mask-type:luminance" maskUnits="userSpaceOnUse" x="0" y="0" width="167" height="167">
<path d="M166.988 0H0.821777V166.167H166.988V0Z" fill="white"/>
</mask>
<g mask="url(#mask5_1359_1457)">
<path fill-rule="evenodd" clip-rule="evenodd" d="M64.5997 50.8502C54.014 57.3049 47.0435 68.9216 47.0435 82.2218C47.0435 83.7574 47.1709 85.1696 47.3036 86.6293C48.209 94.6278 51.6933 101.852 56.8544 107.401L56.8629 107.41L56.8712 107.419C59.8239 110.757 63.5588 113.465 67.564 115.403C71.3085 117.211 75.1763 118.372 79.4351 118.89C80.8934 119.022 82.3045 119.15 83.8387 119.15C86.4221 119.15 88.8727 118.892 91.3244 118.375L91.3313 118.374C99.5956 116.695 106.821 112.306 111.981 106.115L111.988 106.106L111.996 106.097C114.692 103.016 116.759 99.4073 118.316 95.5147C119.863 91.5165 120.767 86.9991 120.767 82.3544H122.767C122.767 87.2559 121.814 92.0196 120.179 96.2421L120.175 96.2526C118.552 100.311 116.378 104.124 113.509 107.405C108.061 113.939 100.438 118.564 91.7334 120.333C89.1467 120.878 86.5589 121.15 83.8387 121.15C82.2018 121.15 80.7051 121.014 79.2563 120.882L79.2244 120.879L79.2095 120.877C74.7217 120.333 70.6372 119.108 66.6945 117.204C62.4816 115.166 58.5275 112.307 55.3815 108.754C49.9403 102.901 46.2676 95.28 45.315 86.8429L45.3138 86.8321L45.3112 86.8039C45.1795 85.3553 45.0435 83.8586 45.0435 82.2218C45.0435 68.2033 52.3954 55.9494 63.5585 49.1426L64.5997 50.8502Z" fill="black"/>
</g>
<mask id="mask6_1359_1457" style="mask-type:luminance" maskUnits="userSpaceOnUse" x="0" y="0" width="167" height="167">
<path d="M166.988 0H0.821777V166.167H166.988V0Z" fill="white"/>
</mask>
<g mask="url(#mask6_1359_1457)">
<path fill-rule="evenodd" clip-rule="evenodd" d="M65.3846 50.7449C69.613 60.0509 77.2164 67.5777 87.3688 71.3378L87.3726 71.3393C97.3943 75.0974 108.152 74.3646 117.411 70.0679C113.182 60.7621 105.579 53.2354 95.4268 49.4753L95.4197 49.4727L95.4128 49.47C85.4039 45.5915 74.6504 46.4373 65.3846 50.7449ZM96.1284 47.6024C85.2332 43.3829 73.5396 44.4811 63.6368 49.3646L62.7878 49.7833L63.1593 50.6539C67.5041 60.8369 75.6586 69.1329 86.6722 73.2126C97.5552 77.2931 109.246 76.3368 119.159 71.4485L120.008 71.0298L119.636 70.1592C115.292 59.9777 107.139 51.6828 96.1284 47.6024Z" fill="black"/>
</g>
<mask id="mask7_1359_1457" style="mask-type:luminance" maskUnits="userSpaceOnUse" x="0" y="0" width="167" height="167">
<path d="M166.988 0H0.821777V166.167H166.988V0Z" fill="white"/>
</mask>
<g mask="url(#mask7_1359_1457)">
<path fill-rule="evenodd" clip-rule="evenodd" d="M63.5356 49.7061L64.2814 50.5092C67.9123 54.4194 70.1133 59.9657 70.2508 66.1529L70.251 66.164V66.1751C70.251 72.2459 68.0452 77.9237 64.4258 81.9608L63.6951 82.7757L62.9493 81.9746C59.1898 77.9367 56.9788 72.3858 56.9788 66.3077C56.9788 60.2369 59.1846 54.5591 62.804 50.5221L63.5356 49.7061ZM63.561 52.7254C60.7158 56.3118 58.9788 61.1381 58.9788 66.3077C58.9788 71.4776 60.7161 76.1913 63.6663 79.7606C66.5109 76.1764 68.2485 71.3531 68.251 66.1862C68.1311 60.8933 66.3875 56.1821 63.561 52.7254Z" fill="black"/>
</g>
<mask id="mask8_1359_1457" style="mask-type:luminance" maskUnits="userSpaceOnUse" x="0" y="0" width="167" height="167">
<path d="M166.988 0H0.821777V166.167H166.988V0Z" fill="white"/>
</mask>
<g mask="url(#mask8_1359_1457)">
<path fill-rule="evenodd" clip-rule="evenodd" d="M83.9714 2.32617C39.3338 2.32617 3.14795 38.5121 3.14795 83.1496C3.14795 127.787 39.3338 163.973 83.9714 163.973C128.609 163.973 164.795 127.787 164.795 83.1496C164.795 38.5121 128.609 2.32617 83.9714 2.32617ZM1.14795 83.1496C1.14795 37.4075 38.2293 0.326172 83.9714 0.326172C129.713 0.326172 166.795 37.4075 166.795 83.1496C166.795 128.892 129.713 165.973 83.9714 165.973C38.2293 165.973 1.14795 128.892 1.14795 83.1496Z" fill="black"/>
</g>
<mask id="mask9_1359_1457" style="mask-type:luminance" maskUnits="userSpaceOnUse" x="0" y="0" width="167" height="167">
<path d="M166.988 0H0.821777V166.167H166.988V0Z" fill="white"/>
</mask>
<g mask="url(#mask9_1359_1457)">
<path d="M79.4624 151.578L79.595 148.66L82.5125 148.793L82.3799 151.71L79.4624 151.578Z" fill="black"/>
</g>
<path d="M69.251 138.581L72.1685 139.51L66.5987 158.208L57.3157 155.423L62.8855 136.725L65.9356 137.653L61.1615 153.699L64.4769 154.628L69.251 138.581Z" fill="black"/>
<path d="M45.9108 149.987L43.2585 148.396L53.2047 131.687L55.857 133.278L45.9108 149.987Z" fill="black"/>
<path d="M29.7318 131.421L30.2622 130.89C31.721 129.431 33.0471 129.033 34.3733 129.431C33.7102 127.84 34.2407 126.381 35.6994 124.79L36.7604 123.596C38.8822 121.474 41.1366 121.474 43.2585 123.596L46.7065 127.044L33.0471 140.969L29.7318 137.786C27.6099 135.532 27.6099 133.542 29.7318 131.421ZM32.9145 136.858L36.4951 133.145L35.6994 132.349C34.9037 131.553 33.9754 131.421 32.9145 132.481L32.1188 133.277C31.1905 134.205 31.0579 135.001 31.8536 135.797L32.9145 136.858ZM38.4843 131.288L42.728 127.044L41.5345 125.851C40.7388 125.188 40.0757 125.055 39.0148 126.116L37.8213 127.309C36.4951 128.636 36.6277 129.431 37.556 130.36L38.4843 131.288Z" fill="black"/>
<path d="M33.8429 105.428L31.4558 106.621L34.506 112.456L36.8931 111.263L38.2192 113.915L33.4451 116.435L32.9146 115.374C32.1189 115.241 31.3232 115.374 30.2623 115.904L17.266 121.872L13.2876 114.313L28.1405 106.621L27.4774 105.428L32.2515 102.908L33.8429 105.428ZM28.8035 113.12C30.1297 112.456 30.7928 112.456 31.4558 112.722L29.5992 109.141L17.1334 115.507L18.327 117.761L28.8035 113.12Z" fill="black"/>
<mask id="mask10_1359_1457" style="mask-type:luminance" maskUnits="userSpaceOnUse" x="0" y="0" width="167" height="167">
<path d="M166.988 0H0.821777V166.167H166.988V0Z" fill="white"/>
</mask>
<g mask="url(#mask10_1359_1457)">
<path d="M16.4703 95.8819L15.8073 91.7708L18.5922 91.2404L19.2552 95.3515L24.8251 94.4231L23.8968 89.2512L26.6817 88.7207L28.1404 96.9428L8.91128 100.391L7.45251 92.1687L10.2374 91.6382L11.0331 96.8102L16.4703 95.8819Z" fill="black"/>
</g>
<mask id="mask11_1359_1457" style="mask-type:luminance" maskUnits="userSpaceOnUse" x="0" y="0" width="167" height="167">
<path d="M166.988 0H0.821777V166.167H166.988V0Z" fill="white"/>
</mask>
<g mask="url(#mask11_1359_1457)">
<path d="M26.6816 78.2418L26.2838 81.292L6.922 79.0375L7.31984 75.9874L15.6746 76.9157L16.0724 73.4677L7.71769 72.5394L8.11553 69.4893L27.4773 71.7437L27.0795 74.7939L18.7247 73.8656L18.3269 77.3135L26.6816 78.2418Z" fill="black"/>
</g>
<path d="M29.4666 64.3152L11.5636 56.6235L12.7571 53.8386L19.5205 56.7561L20.051 55.43C21.2445 52.6451 23.3663 51.8494 26.2839 53.1755L28.6709 54.2365C31.5885 55.43 32.5168 57.5518 31.3232 60.3368L29.4666 64.3152ZM28.6709 59.1432C29.0688 58.2149 28.8035 57.5518 27.61 57.0214L24.9577 55.8278C23.6316 55.2974 23.1011 55.5626 22.7033 56.4909L22.1728 57.8171L28.2731 60.4694L28.6709 59.1432Z" fill="black"/>
<path d="M30.1298 40.5781L32.5168 42.3021L30.7928 44.6892L28.4058 42.9652L30.1298 40.5781Z" fill="black"/>
<path d="M51.7459 35.2734L49.3588 37.2626L46.7065 34.8756L43.789 37.2626L45.6456 40.3128L43.5238 42.0368L33.5776 24.9294L37.0256 22.1445L51.7459 35.2734ZM42.4628 34.8756L44.7173 33.019L37.2909 26.3882L42.4628 34.8756Z" fill="black"/>
<path d="M57.9788 31.6922L50.4198 13.7892L57.8462 10.6064L58.9072 13.1261L54.2656 15.1154L60.7638 30.4987L57.9788 31.6922Z" fill="black"/>
<path d="M79.9929 11.006L80.2581 13.5257C80.656 16.5759 79.3298 18.4325 76.2797 18.8303L74.8209 18.9629L75.7492 26.2567L72.6991 26.6546L70.312 7.29281L74.8209 6.76235C77.8711 6.3645 79.5951 7.82327 79.9929 11.006ZM73.76 9.67987L74.5557 16.178L76.0145 16.0454C76.9428 15.9128 77.4732 15.3823 77.3406 14.0562L76.9428 11.1386C76.8101 9.81249 76.1471 9.41464 75.2188 9.54726L73.76 9.67987Z" fill="black"/>
<path d="M91.2652 11.1392C91.7957 8.08906 93.6523 6.63029 96.7024 7.02814C99.62 7.5586 100.946 9.54782 100.548 12.598L98.8243 22.5441C98.2938 25.5942 96.4372 27.053 93.3871 26.6551C90.4695 26.1247 89.1434 24.1355 89.5412 21.0853L91.2652 11.1392ZM92.5914 21.7484C92.3261 23.0745 92.8566 23.7376 93.7849 23.8702C94.7132 24.0028 95.3763 23.605 95.6415 22.2789L97.4981 11.9349C97.7634 10.6087 97.2329 9.94567 96.3046 9.81305C95.3763 9.68044 94.7132 10.0783 94.448 11.4044L92.5914 21.7484Z" fill="black"/>
<path d="M112.351 20.6867L111.157 23.339L108.505 22.1455L109.699 19.4932L112.351 20.6867Z" fill="black"/>
<path d="M117.39 36.4683L114.871 34.6117L126.806 19.0957L134.498 24.9308L122.695 40.4467L120.175 38.4575L130.387 25.196L127.602 23.0742L117.39 36.4683Z" fill="black"/>
<path d="M138.874 41.7729L141.394 45.2209L139.139 46.8123L136.619 43.3643L131.978 46.6797L135.161 50.9234L132.906 52.5147L128 45.7514L143.781 34.2139L148.687 40.9772L146.433 42.5686L143.25 38.3249L138.874 41.7729Z" fill="black"/>
<path d="M153.196 62.726L150.809 63.6543C147.892 64.7152 145.77 63.9195 144.709 61.002L144.179 59.6759L137.283 62.1955L136.222 59.278L154.523 52.5146L156.114 56.7583C157.175 59.6759 156.114 61.6651 153.196 62.726ZM153.064 56.3605L146.831 58.6149L147.361 59.9411C147.759 60.8694 148.29 61.1346 149.616 60.7368L152.401 59.6759C153.727 59.1454 153.992 58.4823 153.594 57.6866L153.064 56.3605Z" fill="black"/>
<path d="M152.401 77.1812L152.666 81.4249L149.881 81.6901L149.616 77.4464L143.913 77.8443L144.311 83.1489L141.526 83.4141L140.863 75.0593L160.358 73.6006L161.021 81.9553L158.236 82.2206L157.838 76.916L152.401 77.1812Z" fill="black"/>
<path d="M153.462 102.511L150.942 101.98C147.892 101.317 146.566 99.593 147.096 96.5429L147.361 95.0841L140.2 93.6253L140.863 90.5752L159.96 94.5536L159.031 98.9299C158.501 102.113 156.512 103.174 153.462 102.511ZM156.644 97.0733L150.146 95.7472L149.881 97.2059C149.748 98.1342 150.014 98.7973 151.34 99.0625L154.257 99.593C155.583 99.8582 156.114 99.4604 156.379 98.5321L156.644 97.0733Z" fill="black"/>
<path d="M149.748 113.253C152.533 114.711 153.329 116.966 151.87 119.618C150.412 122.27 148.157 122.801 145.372 121.342L136.487 116.568C133.702 115.109 132.906 112.855 134.365 110.203C135.824 107.55 138.078 107.02 140.863 108.479L149.748 113.253ZM139.139 110.998C137.946 110.335 137.15 110.6 136.752 111.529C136.354 112.457 136.487 113.12 137.68 113.783L146.964 118.822C148.157 119.486 148.953 119.22 149.351 118.292C149.748 117.364 149.616 116.701 148.422 116.038L139.139 110.998Z" fill="black"/>
<path d="M127.734 120.413L141.526 134.205L135.426 140.305L133.437 138.316L137.283 134.47L133.702 130.89L132.376 132.083C130.254 134.205 127.867 134.205 125.745 131.951L124.286 130.492C122.032 128.237 122.032 125.983 124.154 123.861L127.734 120.413ZM126.276 125.85C125.612 126.513 125.48 127.309 126.408 128.237L128.132 129.961C129.06 130.89 129.856 130.89 130.519 130.094L131.845 128.9L127.469 124.524L126.276 125.85Z" fill="black"/>
<path d="M115.136 140.306V138.317L112.351 133.012L115.003 131.554L124.154 148.794L121.501 150.252L117.523 142.826L118.053 152.242L115.401 153.7L115.003 144.02L106.118 136.46L108.903 135.002L115.136 140.306Z" fill="black"/>
<mask id="mask12_1359_1457" style="mask-type:luminance" maskUnits="userSpaceOnUse" x="0" y="0" width="167" height="167">
<path d="M166.988 0H0.821777V166.167H166.988V0Z" fill="white"/>
</mask>
<g mask="url(#mask12_1359_1457)">
<path d="M89.2759 140.438L92.326 139.908L93.5196 143.223L97.2328 142.56L97.1002 138.98L99.8851 138.449L100.416 158.209L96.0392 159.005L89.2759 140.438ZM97.2328 145.345L94.3153 145.876L97.6306 155.291L97.2328 145.345Z" fill="black"/>
</g>
</svg>
