<svg width="34" height="35" viewBox="0 0 34 35" fill="none" xmlns="http://www.w3.org/2000/svg">
<path d="M1.7 4.25V7.66118C1.7 21.275 12.7362 32.3112 26.35 32.3112H29.75C31.1583 32.3112 32.3 31.1695 32.3 29.7612V25.4006C32.3 24.303 31.5977 23.3285 30.5564 22.9814L25.1448 21.1776C24.0539 20.814 22.8546 21.2255 22.2167 22.1823L20.9775 24.0411C20.3396 24.9979 19.1403 25.4094 18.0494 25.0458L15.4562 24.1814C12.7969 23.295 10.7566 21.1382 10.0191 18.4338L8.95309 14.5252C8.59699 13.2195 9.32294 11.863 10.6069 11.4351L11.6312 11.0936C12.7029 10.7364 13.3554 9.65263 13.1697 8.53838L12.3851 3.83078C12.1801 2.6012 11.1163 1.7 9.86977 1.7H4.25C2.84167 1.7 1.7 2.84167 1.7 4.25ZM0 4.25C0 1.90279 1.90279 0 4.25 0H9.86977C11.9473 0 13.7204 1.50201 14.0619 3.5513L14.8465 8.2589C15.1698 10.1983 14.034 12.0846 12.1688 12.7064L11.1444 13.0478C10.7165 13.1905 10.4745 13.6426 10.5932 14.0779L11.6592 17.9865C12.2472 20.1425 13.8738 21.8619 15.9938 22.5686L18.587 23.433C18.9506 23.5542 19.3504 23.4171 19.563 23.0981L20.8023 21.2393C21.8654 19.6446 23.8642 18.9588 25.6824 19.5648L31.094 21.3687C32.8294 21.9472 34 23.5713 34 25.4006V29.7612C34 32.1084 32.0972 34.0112 29.75 34.0112H26.35C11.7973 34.0112 0 22.2139 0 7.66118V4.25Z" fill="black"/>
</svg>
