<svg width="36" height="32" viewBox="0 0 36 32" fill="none" xmlns="http://www.w3.org/2000/svg">
<path d="M35 1.76543C35 1.65497 34.9105 1.56543 34.8 1.56543H1.2C1.08955 1.56543 1 1.65497 1 1.76543V24.619C1 24.7294 1.08955 24.819 1.2 24.819H12.5055C12.5433 24.819 12.5804 24.8297 12.6125 24.85L22.221 30.9347C22.3546 31.0193 22.529 30.9225 22.528 30.7643L22.4887 25.0203C22.4879 24.9093 22.5777 24.819 22.6887 24.819H34.8C34.9105 24.819 35 24.7294 35 24.619V1.76543Z" fill="#BF1822" stroke="white" stroke-width="2"/>
<path d="M27.6089 9.95703H8.39149" stroke="white" stroke-width="2" stroke-linecap="round"/>
<path d="M27.6089 16.3486H8.39149" stroke="white" stroke-width="2" stroke-linecap="round"/>
</svg>
