<svg width="36" height="32" viewBox="0 0 36 32" fill="none" xmlns="http://www.w3.org/2000/svg">
<path d="M35 1.2C35 1.08954 34.9105 1 34.8 1H1.2C1.08955 1 1 1.08954 1 1.2V24.0535C1 24.164 1.08954 24.2535 1.2 24.2535H12.5055C12.5433 24.2535 12.5804 24.2643 12.6125 24.2846L22.221 30.3692C22.3546 30.4539 22.529 30.3571 22.528 30.1989L22.4887 24.4549C22.4879 24.3439 22.5777 24.2535 22.6887 24.2535H34.8C34.9105 24.2535 35 24.164 35 24.0535V1.2Z" stroke="white" stroke-width="2"/>
<path d="M27.6086 9.39111H8.39125" stroke="white" stroke-width="2" stroke-linecap="round"/>
<path d="M27.6086 15.7822H8.39125" stroke="white" stroke-width="2" stroke-linecap="round"/>
</svg>
