<svg width="284" height="91" viewBox="0 0 284 91" fill="none" xmlns="http://www.w3.org/2000/svg">
<mask id="mask0_735_1321" style="mask-type:luminance" maskUnits="userSpaceOnUse" x="0" y="0" width="284" height="91">
<path d="M283.444 0H0.445557V90.9994H283.444V0Z" fill="white"/>
</mask>
<g mask="url(#mask0_735_1321)">
<path d="M273.826 87.7023C273.826 87.7023 202.681 76.4923 141.945 76.4923C78.5731 76.4923 10.0633 87.7023 10.0633 87.7023L2.55359 13.1883C2.55359 13.1883 70.9317 1.97827 141.945 1.97827C214.539 1.97827 281.336 13.1883 281.336 13.1883L273.826 87.7023Z" fill="#57120C"/>
</g>
<mask id="mask1_735_1321" style="mask-type:luminance" maskUnits="userSpaceOnUse" x="0" y="0" width="284" height="91">
<path d="M283.444 0H0.445557V90.9994H283.444V0Z" fill="white"/>
</mask>
<g mask="url(#mask1_735_1321)">
<path d="M268.029 86.5155C268.029 86.5155 199.915 75.5692 141.813 75.5692C81.0764 75.5692 15.5969 86.5155 15.5969 86.5155L8.61414 18.3319C8.61414 18.3319 73.8302 5.80298 141.813 5.80298C211.377 5.80298 275.144 17.4087 275.144 17.4087L268.029 86.5155Z" fill="#BF1822"/>
</g>
<mask id="mask2_735_1321" style="mask-type:luminance" maskUnits="userSpaceOnUse" x="0" y="0" width="284" height="90">
<path d="M4.7933 14.9028C16.1238 13.0564 78.3096 3.9565 141.945 3.9565C206.897 3.9565 267.897 13.0564 279.096 14.9028L271.982 85.4603C259.861 83.6139 196.357 74.514 141.813 74.514C85.1606 74.514 23.6335 83.6139 11.6443 85.4603L4.7933 14.9028ZM141.945 0C71.5904 0 2.9488 11.0782 2.29005 11.2101L0.445557 11.6057L8.35054 89.9443L10.4585 89.5487C11.1173 89.4168 79.4953 78.3386 141.945 78.3386C201.759 78.3386 272.772 89.4168 273.563 89.5487L275.671 89.8125L283.576 11.4738L281.731 11.2101C280.941 11.0782 213.88 0 141.945 0Z" fill="white"/>
</mask>
<g mask="url(#mask2_735_1321)">
<path d="M283.444 0H0.445557V89.9443H283.444V0Z" fill="url(#paint0_linear_735_1321)"/>
</g>
<mask id="mask3_735_1321" style="mask-type:luminance" maskUnits="userSpaceOnUse" x="0" y="0" width="284" height="91">
<path d="M283.444 0H0.445557V90.9994H283.444V0Z" fill="white"/>
</mask>
<g mask="url(#mask3_735_1321)">
<path d="M211.508 90.9995C211.508 90.9995 173.96 86.5155 141.813 86.5155C108.48 86.5155 72.2491 90.9995 72.2491 90.9995L68.2966 62.7765C68.2966 62.7765 104.396 58.2925 141.945 58.2925C180.284 58.2925 215.593 62.7765 215.593 62.7765L211.508 90.9995Z" fill="#BF1822"/>
</g>
<path d="M95.3053 74.5141C94.5148 74.1185 93.9878 74.1185 93.5926 74.1185C92.8021 74.1185 92.5386 74.5141 92.5386 74.9098C92.5386 75.4373 93.1973 75.5692 94.1196 75.8329C94.9101 76.0967 95.9641 76.3605 96.0958 77.4156C96.0958 78.2069 95.8323 79.3938 93.5926 79.5257C92.9338 79.5257 92.4068 79.5257 91.7481 79.2619L91.2211 78.075C91.8798 78.4706 92.8021 78.7344 93.5926 78.7344C94.6466 78.7344 95.0418 78.2069 95.0418 77.8112C95.0418 77.1518 94.1196 77.0199 93.4608 76.7561C92.4068 76.3605 91.6163 76.0967 91.6163 75.1735C91.6163 74.3822 92.0116 73.459 93.8561 73.3271C94.3831 73.3271 94.9101 73.3272 95.4371 73.459L95.3053 74.5141Z" fill="#FDDCB1"/>
<path d="M102.025 73.1952C102.288 73.1952 102.42 73.0633 102.683 72.9314L102.947 78.0749C102.947 78.3387 103.079 78.6024 103.342 78.8662L101.366 78.9981C101.761 78.7343 101.761 78.4706 101.761 78.2068L101.498 74.1184C101.498 73.8546 101.366 73.5909 101.102 73.3271L102.025 73.1952ZM101.893 70.8213C102.288 70.8213 102.683 71.0851 102.683 71.4807C102.683 71.8764 102.42 72.272 102.025 72.272C101.629 72.272 101.234 72.0082 101.234 71.6126C101.102 71.2169 101.498 70.8213 101.893 70.8213Z" fill="#FDDCB1"/>
<path d="M108.612 78.6023C109.007 78.3385 109.007 78.0748 109.007 77.811L108.875 73.7226C108.875 73.4588 108.744 73.1951 108.48 72.9313H109.402C109.666 72.9313 109.798 72.9313 110.061 72.6675V73.4588C110.325 72.9313 111.115 72.5356 111.906 72.5356C113.091 72.5356 114.145 72.9313 114.145 74.382L114.277 77.6791C114.277 77.9429 114.409 78.2067 114.672 78.4704L112.696 78.6023C113.091 78.3385 113.091 78.0748 113.091 77.811L112.96 74.9096C112.96 74.1183 112.301 73.5907 111.51 73.7226C110.061 73.7226 110.061 74.9096 110.061 75.1733L110.193 78.0748C110.193 78.3385 110.325 78.6023 110.588 78.8661L108.612 78.6023Z" fill="#FDDCB1"/>
<path d="M124.817 73.4589C124.554 73.1951 123.895 72.9313 123.236 72.9313C122.182 72.9313 121.128 73.5908 121.128 75.0415C121.128 76.3603 122.051 77.2835 123.763 77.2835C124.949 77.2835 125.476 76.8879 125.74 76.6241C125.081 77.9429 124.817 78.0748 123.5 78.0748C122.709 78.0748 121.655 78.0748 120.733 77.1516C120.338 76.756 119.943 76.0966 119.943 75.0415C119.943 74.1183 120.206 73.327 120.733 72.7995C121.524 72.0082 122.446 71.8763 123.368 71.7444C124.159 71.7444 123.763 71.7444 124.817 71.8763V73.4589Z" fill="#FDDCB1"/>
<path d="M131.932 74.7777C131.932 76.0966 132.722 77.1516 134.435 77.0197C135.357 77.0197 136.016 76.756 136.807 76.3603L136.016 77.5473C135.357 77.811 134.83 77.811 134.172 77.811C132.064 77.811 130.614 76.756 130.614 74.7777C130.614 73.0632 131.8 71.7444 133.776 71.7444C136.016 71.7444 136.675 73.4589 136.675 74.6458L131.932 74.7777ZM135.357 73.9864C135.226 73.1951 134.699 72.6676 133.776 72.7995C132.854 72.7995 132.195 73.327 132.064 74.1183L135.357 73.9864Z" fill="#FDDCB1"/>
<path d="M153.934 76.7562C153.934 77.1518 153.934 77.5475 154.461 77.9431H152.221C152.748 77.5475 152.748 77.1518 152.748 76.7562L152.88 71.3489H151.431C152.221 71.0851 153.407 70.4257 154.197 69.2388L153.934 76.7562Z" fill="#FDDCB1"/>
<path d="M163.683 77.6793C165.923 77.1517 167.372 75.4372 167.504 73.459C167.504 71.8764 166.714 70.9532 165.528 70.8213C164.737 70.8213 163.683 71.2169 163.683 72.5358C163.683 73.5909 164.21 74.514 165.528 74.6459C166.187 74.6459 166.582 74.514 166.977 74.3822L166.318 75.3053C166.055 75.4372 165.791 75.701 165.001 75.5691C163.288 75.5691 162.366 74.3822 162.366 72.7995C162.366 71.3488 163.552 69.7662 165.66 69.8981C167.636 70.03 168.953 71.6126 168.953 73.5909C168.822 76.2285 166.318 78.2068 163.156 78.4706L163.683 77.6793Z" fill="#FDDCB1"/>
<path d="M175.936 78.2068C178.176 77.6793 179.757 76.0967 179.757 73.9866C179.889 72.4039 178.966 71.3489 177.781 71.3489C176.99 71.3489 175.936 71.7445 175.936 73.0634C175.936 74.1184 176.331 75.0416 177.649 75.1735C178.176 75.1735 178.703 75.0416 179.098 74.9097L178.308 75.8329C178.044 75.9648 177.781 76.2286 176.99 76.0967C175.409 75.9648 174.355 74.9097 174.355 73.3271C174.487 71.8764 175.541 70.2938 177.781 70.4257C179.757 70.5576 181.074 72.1402 180.943 74.1184C180.811 76.7561 178.308 78.7344 175.146 78.9981L175.936 78.2068Z" fill="#FDDCB1"/>
<path d="M188.189 78.8661C190.429 78.3385 192.01 76.7559 192.141 74.7777C192.273 73.1951 191.483 72.14 190.165 72.14C189.375 72.14 188.321 72.5357 188.321 73.8545C188.189 74.9096 188.716 75.8328 190.033 75.9646C190.56 75.9646 191.087 75.8328 191.483 75.7009L190.692 76.6241C190.429 76.7559 190.165 77.0197 189.375 76.8878C187.794 76.7559 186.74 75.569 186.871 74.1183C187.003 72.6675 188.189 71.2168 190.297 71.3487C192.273 71.4806 193.591 73.0632 193.459 75.1733C193.327 77.811 190.692 79.7893 187.53 79.9212L188.189 78.8661Z" fill="#FDDCB1"/>
<path d="M59.9965 26.2447C60.5235 26.2447 60.787 26.1128 61.1823 25.981L62.4998 33.2346C61.314 31.5201 59.8648 31.3882 57.8885 31.652L51.4327 32.3114L53.8042 53.5447C54.0677 55.3911 54.463 57.1056 56.1757 58.1607L43.9229 59.4795C45.3722 58.0288 45.504 56.1824 45.2405 54.4679L42.8689 32.9708C42.6054 31.1244 42.2102 29.4099 40.4974 28.3549L59.9965 26.2447Z" fill="white"/>
<path d="M74.2254 24.9258L83.0527 40.0925L86.2147 29.4099C86.3465 28.7505 86.61 27.9592 86.4782 27.1679C86.3465 25.849 85.556 24.7939 84.3702 24.1345L93.1975 23.4751L85.0289 49.4563C82.6574 56.7099 76.3334 57.3693 75.1477 57.3693C73.0397 57.5012 71.4587 57.2374 69.7459 56.1823L71.8539 51.3026C72.7762 52.2258 73.6984 52.4896 75.1477 52.4896C76.2017 52.3577 78.4414 52.2258 79.7589 49.1925L80.0224 48.5331C77.6509 47.2142 77.2557 46.1592 76.5969 45.1041L67.6379 30.5968C65.7934 27.5635 64.3441 26.3765 63.4219 25.849L74.2254 24.9258Z" fill="white"/>
<path d="M112.038 22.6839C117.703 22.4201 121.787 25.8491 122.051 30.8607C122.314 37.7187 115.99 41.2796 109.139 40.8839C112.169 39.3013 113.487 36.7955 113.355 33.3665C113.223 28.8825 110.72 27.5636 108.48 27.5636H108.085L109.007 49.3245C109.139 51.1709 109.403 52.8854 111.115 54.0723L98.8625 54.5998C100.444 53.281 100.575 51.4346 100.575 49.5882L99.6531 27.9593C99.5213 26.1129 99.2578 24.3984 97.545 23.2114L112.038 22.6839Z" fill="white"/>
<path d="M141.154 22.0245L147.873 40.7519L153.802 22.1563L165.264 22.2882C163.552 23.2114 163.156 24.6621 163.42 26.7723L165.264 47.0823C165.528 50.1156 165.923 51.6982 167.504 53.6764L155.12 53.5445C156.305 52.3576 156.569 51.1706 156.701 50.1156C156.701 49.0605 156.569 48.533 156.569 47.6098L155.251 32.9708L148.4 54.204C145.897 53.2808 144.711 52.4895 143.657 51.6982C142.603 50.9069 142.076 50.5112 141.286 48.1373L136.016 32.9708L134.171 48.0055C133.908 50.6431 134.04 52.2257 136.016 53.4127L126.925 53.2808C127.847 52.3576 128.77 51.0388 129.165 48.0055L132.063 27.6954C132.195 26.5085 132.59 24.0027 130.351 21.8926L141.154 22.0245Z" fill="white"/>
<path d="M193.064 24.1346L200.573 50.6433C201.627 54.4679 203.208 55.9187 203.867 56.4462L189.638 55.3911C190.956 54.7317 191.746 53.5448 191.878 52.3578C191.878 51.9621 191.746 50.7752 191.614 50.5114L190.297 46.0274L180.943 45.3679L179.098 49.7201C178.835 50.3795 178.571 51.039 178.439 51.8303C178.439 52.3578 178.439 53.6766 179.757 54.7317L170.403 54.0723C172.247 52.3578 173.169 51.1708 174.092 48.7969L182.655 28.3549C182.919 27.6955 183.182 26.9042 183.314 25.981C183.314 25.1897 183.051 24.2665 181.733 23.2114L193.064 24.1346ZM189.111 41.2795L186.476 31.5201L182.524 40.752L189.111 41.2795Z" fill="white"/>
<path d="M241.943 28.7507C240.23 29.8057 239.703 31.6521 239.571 33.3666L237.332 54.8637C237.2 56.7101 237.2 58.5565 238.649 59.8753L226.396 58.5565C228.109 57.5014 228.636 55.655 228.768 53.9405L229.822 44.313L221.39 43.3898L220.336 53.0173C220.204 54.8637 220.204 56.7101 221.653 58.0289L209.401 56.7101C211.113 55.655 211.64 53.8086 211.772 52.0941L214.012 30.597C214.144 28.7507 214.144 26.9043 212.694 25.5854L224.947 26.9043C223.234 27.9594 222.707 29.8057 222.576 31.5202L221.785 39.0376L230.217 39.9608L231.008 32.4434C231.139 30.597 231.139 28.7507 229.69 27.4318L241.943 28.7507Z" fill="white"/>
<defs>
<linearGradient id="paint0_linear_735_1321" x1="0.445557" y1="44.9694" x2="283.411" y2="44.9694" gradientUnits="userSpaceOnUse">
<stop stop-color="#CD9441"/>
<stop offset="0.0242277" stop-color="#D29C49"/>
<stop offset="0.1785" stop-color="#F0C679"/>
<stop offset="0.2558" stop-color="#FCD88D"/>
<stop offset="0.4115" stop-color="#FDCA6F"/>
<stop offset="0.4698" stop-color="#FEDF90"/>
<stop offset="0.5133" stop-color="#FEEAA4"/>
<stop offset="0.5369" stop-color="#FEE497"/>
<stop offset="0.6158" stop-color="#FDCF70"/>
<stop offset="0.6578" stop-color="#FCC761"/>
<stop offset="0.8642" stop-color="#CD9441"/>
<stop offset="0.9944" stop-color="#FEEDAF"/>
<stop offset="1" stop-color="#FEEDAF"/>
</linearGradient>
</defs>
</svg>
