<svg width="24" height="32" viewBox="0 0 24 32" fill="none" xmlns="http://www.w3.org/2000/svg">
<path fill-rule="evenodd" clip-rule="evenodd" d="M4.72869 5.17317C6.65803 3.23237 9.27369 2.143 12 2.143C14.7263 2.143 17.342 3.23237 19.2713 5.17317C21.2008 7.11408 22.2857 9.74757 22.2857 12.4946C22.2857 17.2317 19.6595 21.5185 16.923 24.6841C15.565 26.255 14.2048 27.5209 13.1841 28.3937C12.6989 28.8085 12.2919 29.1333 12 29.3587C11.7081 29.1333 11.3011 28.8085 10.8159 28.3937C9.79517 27.5209 8.43497 26.255 7.077 24.6841C4.34049 21.5185 1.71429 17.2317 1.71429 12.4946C1.71429 9.74757 2.79917 7.11408 4.72869 5.17317ZM11.5059 31.1292C11.5063 31.1293 11.5065 31.1295 12 30.4287C12.4935 31.1295 12.4937 31.1293 12.4941 31.1292C12.1981 31.3375 11.8019 31.3375 11.5059 31.1292ZM11.5059 31.1292L12 30.4287L12.4941 31.1292L12.4971 31.1269L12.5049 31.1215L12.5322 31.1019C12.5556 31.0851 12.5893 31.0608 12.6325 31.0291C12.7189 30.9655 12.8436 30.8725 13.0012 30.7514C13.3163 30.5091 13.7632 30.1539 14.2981 29.6966C15.3666 28.783 16.7921 27.4568 18.2199 25.8052C21.0548 22.5258 24 17.8454 24 12.4946C24 9.2962 22.7369 6.22771 20.4871 3.96451C18.237 1.70117 15.1842 0.428711 12 0.428711C8.8158 0.428711 5.763 1.70117 3.51291 3.96451C1.26309 6.22771 0 9.2962 0 12.4946C0 17.8454 2.94523 22.5258 5.78014 25.8052C7.20789 27.4568 8.6334 28.783 9.70191 29.6966C10.2368 30.1539 10.6837 30.5091 10.9988 30.7514C11.1564 30.8725 11.2811 30.9655 11.3675 31.0291C11.4107 31.0608 11.4444 31.0851 11.4678 31.1019L11.4951 31.1215L11.5029 31.1269L11.5059 31.1292ZM8.57143 12.4287C8.57143 10.5352 10.1065 9.00014 12 9.00014C13.8935 9.00014 15.4286 10.5352 15.4286 12.4287C15.4286 14.3222 13.8935 15.8573 12 15.8573C10.1065 15.8573 8.57143 14.3222 8.57143 12.4287ZM12 7.28585C9.15969 7.28585 6.85714 9.5884 6.85714 12.4287C6.85714 15.269 9.15969 17.5716 12 17.5716C14.8403 17.5716 17.1429 15.269 17.1429 12.4287C17.1429 9.5884 14.8403 7.28585 12 7.28585Z" fill="#000"/>
</svg>
